<svg width="11" height="16" viewBox="0 0 11 16" fill="none" xmlns="http://www.w3.org/2000/svg">
<path d="M7.53741 0.0357148L0.628636 8.90707C0.3729 9.23545 0.606905 9.71428 1.02312 9.71428H3.80486C4.11548 9.71428 4.35093 9.99454 4.29737 10.3005L3.31684 15.9011C3.31478 15.9132 3.31531 15.9257 3.31839 15.9376C3.32146 15.9495 3.32702 15.9605 3.33465 15.97C3.34229 15.9794 3.35182 15.987 3.36259 15.9922C3.37335 15.9974 3.38507 16 3.39694 16C3.40956 16 3.42201 15.9969 3.43329 15.991C3.44456 15.9851 3.45436 15.9766 3.46191 15.9661L10.3714 7.09291C10.6272 6.76452 10.3931 6.28571 9.97694 6.28571H7.19562C6.88483 6.28571 6.64934 6.00519 6.70318 5.6991L7.68831 0.0982148C7.68978 0.0858877 7.6887 0.0733781 7.68515 0.0615177C7.6816 0.0496573 7.67566 0.0387179 7.66772 0.0294272C7.65979 0.0201365 7.65004 0.0127072 7.63913 0.00763346C7.62822 0.00255968 7.61639 -4.2261e-05 7.60444 5.19089e-07C7.59135 5.44998e-05 7.57845 0.00331706 7.56681 0.00952282C7.55516 0.0157286 7.54509 0.0247024 7.53741 0.0357148Z" fill="#BDC026"/>
</svg>
