<svg width="65" height="80" viewBox="0 0 65 80" fill="none" xmlns="http://www.w3.org/2000/svg">
<rect width="65" height="80" rx="16" fill="#171717"/>
<rect x="8" y="12" width="50" height="52" rx="7" fill="#2A2A2A"/>
<g clip-path="url(#clip0_2_294)">
<path d="M38.7001 35.3C38.3101 35.3 38.0501 35.0401 38.0501 34.6501C38.0501 32.8301 36.6202 31.4 34.8001 31.4C34.4101 31.4 34.1501 31.1401 34.1501 30.7501C34.1501 30.3601 34.4101 30.1001 34.8001 30.1001C37.3351 30.1001 39.3501 32.1151 39.3501 34.6501C39.3501 35.0401 39.0901 35.3 38.7001 35.3Z" fill="black"/>
<path d="M33.4999 41.1499C33.8899 41.1499 34.1499 41.4099 34.1499 41.7999C34.1499 42.1899 33.8899 42.4499 33.4999 42.4499C33.1099 42.4499 32.85 42.1899 32.85 41.7999C32.85 41.41 33.1099 41.1499 33.4999 41.1499Z" fill="black"/>
<path d="M27.6501 40.5C28.0401 40.5 28.3 40.76 28.3 41.15C28.3 41.54 28.0401 41.7999 27.6501 41.7999C27.2601 41.7999 27.0001 41.54 27.0001 41.15C27.0001 40.76 27.2601 40.5 27.6501 40.5Z" fill="black"/>
<path d="M22.4499 39.2C22.8399 39.2 23.0999 39.4599 23.0999 39.8499C23.0999 40.2399 22.8399 40.4999 22.4499 40.4999C22.0599 40.4999 21.7999 40.2399 21.7999 39.8499C21.7999 39.4599 22.0599 39.2 22.4499 39.2Z" fill="black"/>
<path d="M44.55 39.2C44.94 39.2 45.2 39.4599 45.2 39.8499C45.2 40.2399 44.94 40.4999 44.55 40.4999C44.16 40.4999 43.9 40.2399 43.9 39.8499C43.9 39.4599 44.16 39.2 44.55 39.2Z" fill="black"/>
<path d="M39.35 40.5C39.74 40.5 40 40.76 40 41.15C40 41.54 39.74 41.7999 39.35 41.7999C38.96 41.7999 38.7001 41.54 38.7001 41.15C38.7001 40.76 38.96 40.5 39.35 40.5Z" fill="black"/>
<path d="M14 39.85C14 36.831 20.1317 35.3306 23.262 34.7949C24.0784 30.3314 27.9042 27.1267 32.85 26.8677V24.9H32.2001L31.5501 24.25V21.65L32.2 21H34.7999L35.45 21.65V24.2499L34.8 24.8999H34.1501V26.8675C39.0994 27.1267 42.9272 30.3359 43.7399 34.8042C46.8707 35.3895 53 36.8316 53 39.85C53 41.4557 51.1718 42.7545 48.3454 43.7168C46.2914 48.0119 40.3353 50.9 33.5 50.9C26.7034 50.9 20.7766 48.0444 18.6903 43.7288C15.8437 42.7653 14 41.4624 14 39.85ZM34.15 22.3H32.8499V23.6001H34.15V22.3ZM33.5 28.15C28.5181 28.15 24.6959 31.4992 24.4044 36.0815L26.3501 36.73C30.9651 38.29 36.0351 38.29 40.65 36.73L42.5957 36.0815C42.5894 35.9819 42.5813 35.8828 42.5717 35.7844C42.5569 35.6805 42.5417 35.576 42.537 35.4822C41.9648 31.21 38.2621 28.15 33.5 28.15ZM20.5 44.27C22.84 47.455 27.91 49.5999 33.5 49.5999C39.155 49.5999 44.16 47.455 46.5 44.27C42.99 45.18 38.31 45.6999 33.5 45.6999C28.69 45.6999 24.01 45.18 20.5 44.27ZM25.8788 43.9498C25.9155 43.9544 25.9522 43.959 25.989 43.9635C26.0703 43.9735 26.1521 43.9833 26.2342 43.9931C28.5041 44.2598 30.9669 44.4 33.5 44.4C35.0326 44.4 36.5395 44.3487 37.9936 44.2506C46.5681 43.6639 51.7001 41.4691 51.7001 39.8499C51.7001 38.7449 49.23 37.1199 43.9001 36.1449C43.9001 36.275 43.9001 36.4049 43.9001 36.5999V37.0549L41.1051 38.0299C36.2301 39.6549 30.8351 39.6549 25.9601 38.0299L23.1 37.0549V36.6C23.1 36.405 23.1 36.21 23.1 36.145C17.7701 37.185 15.3 38.745 15.3 39.85C15.3 41.2613 19.1993 43.11 25.8788 43.9498Z" fill="#1A1818" stroke="black"/>
<path d="M20.1426 37.0631L22.897 36.3806V37.185L23.9695 37.5506L25.8707 38.2331L28.6251 38.9643C28.6251 38.9643 30.4532 39.2812 30.9651 39.33C31.477 39.3787 32.6226 39.4518 32.647 39.4518C32.6713 39.4518 35.4745 39.33 35.4745 39.33L37.6682 39.1106L39.9838 38.5987L42.7382 37.6725L44.0788 37.1606V36.3562L45.6388 36.7218L47.0282 37.0631L48.3445 37.5262L49.9288 38.2087L50.9038 38.9156L51.3426 39.33L51.5376 39.8662L51.3426 40.305L50.4895 41.1581L49.2707 41.7431L47.0282 42.5718L44.8588 43.1325L42.4701 43.5956L38.6188 44.0343L37.522 44.0831L34.597 44.2293C32.9983 44.2347 32.1013 44.2117 30.502 44.1562C29.6352 44.1201 29.1651 44.0833 28.3082 44.01L26.8213 43.8881L24.9932 43.6687C23.6716 43.444 22.9297 43.3147 21.5807 43.0106C20.6313 42.7932 20.1087 42.6459 19.192 42.3281C18.7159 42.1579 18.4442 42.0573 17.9245 41.8406C17.485 41.6411 17.2407 41.5272 16.8276 41.3043L16.1451 40.8412L15.6088 40.2318L15.5113 40.0125V39.8175V39.5981L15.8526 39.1593L16.4132 38.6718L17.1932 38.2087L18.4851 37.6237L20.1426 37.0631Z" fill="#383838"/>
<ellipse cx="1.77937" cy="1.4625" rx="1.77937" ry="1.4625" transform="matrix(-1 0 0 1 46.3213 39.0376)" fill="#104454" fill-opacity="0.8"/>
<ellipse cx="1.77937" cy="1.4625" rx="1.77937" ry="1.4625" transform="matrix(-1 0 0 1 34.7676 40.3538)" fill="#104454" fill-opacity="0.8"/>
<ellipse cx="1.77937" cy="1.4625" rx="1.77937" ry="1.4625" transform="matrix(-1 0 0 1 24.1887 39.0376)" fill="#104454" fill-opacity="0.8"/>
<path d="M39.8863 36.7707L42.397 35.9419L42.1776 34.6013L41.8363 33.5288L41.1295 32.1882L40.1057 30.8963L38.9601 29.9457L37.717 29.2388L36.5713 28.8L35.7182 28.5807L34.4995 28.3857L33.1101 28.3369L31.7938 28.4832L30.4776 28.8L29.137 29.3363L27.8451 30.0919L26.5532 31.2863L25.8707 32.1882L25.2126 33.4313L24.7495 34.8694L24.6032 35.9419L27.7476 36.9657L30.112 37.4532L31.7207 37.6969H34.2801L35.8401 37.5994L37.717 37.3069L39.8863 36.7707Z" fill="#57A6C8" fill-opacity="0.9" stroke="black"/>
<path d="M22.7261 46.2038L21.0199 44.5951L27.6743 45.4482L35.4255 45.6676L40.7393 45.302L45.2974 44.6438L46.0774 44.522L45.9311 44.8388L44.8099 45.9845L42.5918 47.4226L40.4711 48.3976L37.3755 49.1776L33.3536 49.4945L31.1843 49.2995L29.3074 49.007L27.0405 48.3976L24.6518 47.4226L22.7261 46.2038Z" fill="#050404" stroke="black"/>
</g>
<rect x="27" y="67" width="10" height="9" rx="4" fill="#D9D9D9"/>
<defs>
<clipPath id="clip0_2_294">
<rect width="39" height="39" fill="white" transform="matrix(-1 0 0 1 53 21)"/>
</clipPath>
</defs>
</svg>
