<svg width="30" height="23" viewBox="0 0 30 23" fill="none" xmlns="http://www.w3.org/2000/svg">
<path d="M11.0002 10.9997C11.3002 10.9997 11.5002 10.7997 11.5002 10.4997C11.5002 9.09976 12.6002 7.99972 14.0002 7.99972C14.3002 7.99972 14.5002 7.79974 14.5002 7.49974C14.5002 7.19974 14.3002 6.99976 14.0002 6.99976C12.0502 6.99976 10.5002 8.54974 10.5002 10.4997C10.5002 10.7997 10.7002 10.9997 11.0002 10.9997Z" fill="#A4A4A4"/>
<path d="M15.0019 15.5002C14.7019 15.5002 14.502 15.7002 14.502 16.0002C14.502 16.3002 14.7019 16.5002 15.0019 16.5002C15.3019 16.5002 15.5019 16.3002 15.5019 16.0002C15.5019 15.7003 15.3019 15.5002 15.0019 15.5002Z" fill="#A4A4A4"/>
<path d="M19.5 15C19.2 15 19 15.2 19 15.5C19 15.8 19.2 16 19.5 16C19.8 16 20 15.8 20 15.5C20 15.2 19.8 15 19.5 15Z" fill="#A4A4A4"/>
<path d="M23.498 14C23.198 14 22.998 14.2 22.998 14.5C22.998 14.8 23.198 15 23.498 15C23.798 15 23.998 14.8 23.998 14.5C23.998 14.2 23.798 14 23.498 14Z" fill="#A4A4A4"/>
<path d="M6.50071 14C6.20071 14 6.00073 14.2 6.00073 14.5C6.00073 14.8 6.20071 15 6.50071 15C6.80071 15 7.00069 14.8 7.00069 14.5C7.00069 14.2 6.80071 14 6.50071 14Z" fill="#A4A4A4"/>
<path d="M10.5005 15C10.2005 15 10.0005 15.2 10.0005 15.5C10.0005 15.8 10.2005 16 10.5005 16C10.8005 16 11.0004 15.8 11.0004 15.5C11.0004 15.2 10.8005 15 10.5005 15Z" fill="#A4A4A4"/>
<path d="M30 14.5C30 12.1777 25.2833 11.0235 22.8754 10.6114C22.2474 7.17803 19.3045 4.71281 15.5 4.51359V3H16L16.4999 2.50002V0.499981L16 0H14L13.5 0.499981V2.49996L14 2.99994H14.5V4.51348C10.6928 4.71281 7.74832 7.18143 7.12313 10.6187C4.71486 11.0688 0 12.1781 0 14.5C0 15.7351 1.40631 16.7342 3.58043 17.4745C5.16047 20.7784 9.74209 23 15 23C20.2281 23 24.7873 20.8034 26.3921 17.4837C28.5817 16.7425 30 15.7403 30 14.5ZM14.5 1.00002H15.5V2.00004H14.5V1.00002ZM15 5.50002C18.8323 5.50002 21.7724 8.07627 21.9966 11.6012L20.5 12.1C16.9499 13.3 13.0499 13.3 9.49998 12.1L8.00332 11.6012C8.00818 11.5245 8.01439 11.4483 8.02178 11.3726C8.03314 11.2927 8.04486 11.2123 8.0485 11.1401C8.48865 7.85385 11.3368 5.50002 15 5.50002ZM25 17.9C23.2 20.35 19.3 22 15 22C10.65 22 6.79998 20.35 4.99998 17.9C7.69998 18.6 11.3 19 15 19C18.7 19 22.3 18.6 25 17.9ZM20.8625 17.6537C20.8342 17.6572 20.806 17.6607 20.7777 17.6642C20.7152 17.6719 20.6522 17.6795 20.5891 17.687C18.843 17.8922 16.9485 18 15 18C13.8211 18 12.6619 17.9606 11.5434 17.8851C4.9476 17.4338 0.999961 15.7455 0.999961 14.5C0.999961 13.6499 2.89998 12.4 6.99996 11.65C6.99996 11.75 6.99996 11.8499 6.99996 11.9999V12.3499L9.14994 13.0999C12.8999 14.3499 17.05 14.3499 20.8 13.0999L23 12.3499V12C23 11.85 23 11.7 23 11.65C27.1 12.45 29 13.65 29 14.5C29 15.5856 26.0005 17.0077 20.8625 17.6537Z" fill="#A4A4A4"/>
</svg>
