<svg width="13" height="12" viewBox="0 0 13 12" fill="none" xmlns="http://www.w3.org/2000/svg">
<path d="M1.08394 4.44267L6.18498 11.0589C6.22205 11.1072 6.26974 11.1464 6.32437 11.1733C6.379 11.2003 6.43909 11.2143 6.5 11.2143C6.56091 11.2143 6.621 11.2003 6.67563 11.1733C6.73026 11.1464 6.77795 11.1072 6.81502 11.0589L11.9161 4.44267C11.9662 4.37737 11.9953 4.29835 11.9995 4.21612C12.0036 4.13388 11.9827 4.05233 11.9394 3.98229L10.2091 1.18931C10.1735 1.13151 10.1237 1.08378 10.0644 1.05064C10.0051 1.01751 9.93839 1.00008 9.87049 1H3.12951C3.06161 1.00008 2.99487 1.01751 2.9356 1.05064C2.87634 1.08378 2.82653 1.13151 2.79091 1.18931L1.06061 3.98229C1.01731 4.05233 0.996353 4.13388 1.00052 4.21612C1.00469 4.29835 1.03378 4.37737 1.08394 4.44267ZM1.39282 4.14287H11.6072H1.39282Z" fill="#0897FF"/>
<path d="M1.39282 4.14287H11.6072M1.08394 4.44267L6.18498 11.0589C6.22205 11.1072 6.26974 11.1464 6.32437 11.1733C6.379 11.2003 6.43909 11.2143 6.5 11.2143C6.56091 11.2143 6.621 11.2003 6.67563 11.1733C6.73026 11.1464 6.77795 11.1072 6.81502 11.0589L11.9161 4.44267C11.9662 4.37737 11.9953 4.29835 11.9995 4.21612C12.0036 4.13388 11.9827 4.05233 11.9394 3.98229L10.2091 1.18931C10.1735 1.13151 10.1237 1.08378 10.0644 1.05064C10.0051 1.01751 9.93839 1.00008 9.87049 1H3.12951C3.06161 1.00008 2.99487 1.01751 2.9356 1.05064C2.87634 1.08378 2.82653 1.13151 2.79091 1.18931L1.06061 3.98229C1.01731 4.05233 0.996353 4.13388 1.00052 4.21612C1.00469 4.29835 1.03378 4.37737 1.08394 4.44267Z" stroke="#25B5D5" stroke-linecap="round" stroke-linejoin="round"/>
<path d="M9.80068 1.37939L8.70068 4.0351L6.50068 1M3.20068 1.37939L4.30068 4.0351L6.50068 1M6.50068 10.4847L4.30068 4.0351L6.50068 10.4847ZM6.50068 10.4847L8.70068 4.0351L6.50068 10.4847Z" fill="#0897FF"/>
<path d="M9.80068 1.37939L8.70068 4.0351M8.70068 4.0351L6.50068 1L4.30068 4.0351M8.70068 4.0351L6.50068 10.4847L4.30068 4.0351M3.20068 1.37939L4.30068 4.0351" stroke="#25B5D5" stroke-linecap="round" stroke-linejoin="round"/>
</svg>
